<svg id="Layer_1" enable-background="new 0 0 512 512" height="512" viewBox="0 0 512 512" width="512" xmlns="http://www.w3.org/2000/svg"><g><g><g><g id="XMLID_203_"><g id="XMLID_204_"><g id="XMLID_205_"><g id="XMLID_206_"><g id="XMLID_207_"><g id="XMLID_208_"><g id="XMLID_209_"><g id="XMLID_210_"><g id="XMLID_211_"><g id="XMLID_212_"><g id="XMLID_213_"><g id="XMLID_214_"><g id="XMLID_215_"><g id="XMLID_216_"><g id="XMLID_251_"><circle cx="256" cy="256" fill="#4f4359" r="256"/></g></g></g></g></g></g></g></g></g></g></g></g></g></g></g></g></g><path d="m511.98 257.604-125.738-125.737-254.376 254.376 125.737 125.737c140.11-.862 253.515-114.266 254.377-254.376z" fill="#372a44"/><g><g><g><g id="XMLID_1648_"><g id="XMLID_1649_"><g id="XMLID_1650_"><g id="XMLID_1651_"><g id="XMLID_1652_"><g id="XMLID_1653_"><g id="XMLID_1654_"><g id="XMLID_1655_"><g id="XMLID_1722_"><g id="XMLID_1723_"><g id="XMLID_1724_"><g id="XMLID_1725_"><g id="XMLID_1726_"><g id="XMLID_1727_"><g id="XMLID_1728_"><circle cx="255.999" cy="256" fill="#fed940" r="179.923"/></g></g></g></g></g></g></g></g></g></g></g></g></g></g></g></g></g><g><g><g id="XMLID_1656_"><g id="XMLID_1657_"><g id="XMLID_1658_"><g id="XMLID_1659_"><g id="XMLID_1660_"><g id="XMLID_1661_"><g id="XMLID_1677_"><g id="XMLID_1715_"><g id="XMLID_1716_"><g id="XMLID_1717_"><g id="XMLID_1718_"><g id="XMLID_1719_"><g id="XMLID_1720_"><g id="XMLID_1721_"><g><path d="m435.923 256c0 99.367-80.557 179.924-179.924 179.924v-359.848c99.368 0 179.924 80.557 179.924 179.924z" fill="#ffc024"/></g></g></g></g></g></g></g></g></g></g></g></g></g></g></g></g></g></g><g><g><path d="m235.793 205.385h-30c0-10.354-8.424-18.777-18.777-18.777-10.354 0-18.778 8.423-18.778 18.777h-30c0-26.896 21.882-48.777 48.778-48.777 26.895-.001 48.777 21.881 48.777 48.777z" fill="#7f6866"/></g><g><path d="m373.763 205.385h-30c0-10.354-8.424-18.777-18.778-18.777s-18.777 8.423-18.777 18.777h-30c0-26.896 21.882-48.777 48.777-48.777 26.896-.001 48.778 21.881 48.778 48.777z" fill="#634c4c"/></g></g><g><path d="m256 337.167c-38.854 0-70.463-31.609-70.463-70.463h35c0 19.554 15.908 35.463 35.463 35.463s35.463-15.909 35.463-35.463h35c0 38.853-31.61 70.463-70.463 70.463z" fill="#7f6866"/></g><g><g><path d="m326.46 266.7c0 38.86-31.61 70.47-70.46 70.47v-35c19.55 0 35.46-15.91 35.46-35.47z" fill="#634c4c"/></g></g><g><g><circle cx="380.017" cy="271.118" fill="#ff3b3b" r="23.575"/></g><g><circle cx="131.981" cy="271.118" fill="#ff6643" r="23.575"/></g></g></g></svg>