<svg id="Layer_1" enable-background="new 0 0 512 512" height="512" viewBox="0 0 512 512" width="512" xmlns="http://www.w3.org/2000/svg"><g><g><g><circle cx="256" cy="256" fill="#4f4359" r="256"/></g></g><g><path d="m511.98 257.604-125.738-125.737-254.376 254.376 125.737 125.737c140.11-.862 253.515-114.266 254.377-254.376z" fill="#372a44"/></g><g><g><g><circle cx="255.999" cy="256" fill="#fed940" r="179.923"/></g></g><g><g><path d="m435.923 256c0 99.367-80.557 179.924-179.924 179.924v-359.848c99.368 0 179.924 80.557 179.924 179.924z" fill="#ffc024"/></g></g></g><g><g><circle cx="193.811" cy="185" fill="#7f6866" r="28.644"/></g><g><circle cx="318.189" cy="185" fill="#634c4c" r="28.644"/></g></g><g><path d="m361.277 352.501h-35c0-38.751-31.526-70.277-70.277-70.277s-70.277 31.526-70.277 70.277h-35c0-58.05 47.227-105.277 105.277-105.277s105.277 47.228 105.277 105.277z" fill="#7f6866"/></g><path d="m326.277 352.501h35c0-58.05-47.227-105.277-105.277-105.277h-.001v35h.001c38.751.001 70.277 31.526 70.277 70.277z" fill="#634c4c"/></g></svg>